<?xml version="1.0" encoding="UTF-8"?>
<!DOCTYPE svg PUBLIC "-//W3C//DTD SVG 1.1//EN" "http://www.w3.org/Graphics/SVG/1.1/DTD/svg11.dtd">
<svg xmlns="http://www.w3.org/2000/svg" version="1.1" width="500px" height="500px" style="shape-rendering:geometricPrecision; text-rendering:geometricPrecision; image-rendering:optimizeQuality; fill-rule:evenodd; clip-rule:evenodd" xmlns:xlink="http://www.w3.org/1999/xlink">
<g><path style="opacity:0" fill="#282c33" d="M -0.5,-0.5 C 75.8333,-0.5 152.167,-0.5 228.5,-0.5C 148.683,9.14609 85.8496,46.8128 40,112.5C 16.8092,148.574 3.30924,187.907 -0.5,230.5C -0.5,153.5 -0.5,76.5 -0.5,-0.5 Z"/></g>
<g><path style="opacity:1" fill="#bc72d1" d="M 228.5,-0.5 C 240.5,-0.5 252.5,-0.5 264.5,-0.5C 348.784,7.37612 414.284,46.3761 461,116.5C 484.861,155.242 497.694,197.242 499.5,242.5C 499.5,249.5 499.5,256.5 499.5,263.5C 490.17,359.697 442.837,430.197 357.5,475C 328.454,488.558 298.12,496.725 266.5,499.5C 254.833,499.5 243.167,499.5 231.5,499.5C 150.157,491.254 86.3242,453.588 40,386.5C 16.7798,349.671 3.27975,309.671 -0.5,266.5C -0.5,254.5 -0.5,242.5 -0.5,230.5C 3.30924,187.907 16.8092,148.574 40,112.5C 85.8496,46.8128 148.683,9.14609 228.5,-0.5 Z"/></g>
<g><path style="opacity:0" fill="#282c33" d="M 264.5,-0.5 C 342.833,-0.5 421.167,-0.5 499.5,-0.5C 499.5,80.5 499.5,161.5 499.5,242.5C 497.694,197.242 484.861,155.242 461,116.5C 414.284,46.3761 348.784,7.37612 264.5,-0.5 Z"/></g>
<g><path style="opacity:1" fill="#282c33" d="M 233.5,3.5 C 332.273,1.79044 408.106,42.1238 461,124.5C 507.918,210.062 506.918,295.062 458,379.5C 411.877,449.506 346.711,488.006 262.5,495C 165.638,496.828 91.1381,457.328 39,376.5C -3.27628,301.922 -7.60962,225.255 26,146.5C 59.3339,78.1675 112.501,33.3341 185.5,12C 201.481,8.1769 217.481,5.34356 233.5,3.5 Z"/></g>
<!--// TODO change to light color-->
    <g><path style="opacity:1" fill="#f5f5f5" d="M 231.5,61.5 C 239.457,61.7205 246.79,63.8872 253.5,68C 257.762,69.5315 262.095,70.8649 266.5,72C 301.632,88.7135 336.298,106.38 370.5,125C 389.199,135.681 407.865,146.347 426.5,157C 431.408,160.882 434.074,165.882 434.5,172C 433.53,179.381 431.696,186.547 429,193.5C 421.32,213.875 413.32,234.209 405,254.5C 398.754,274.639 392.088,294.639 385,314.5C 381.329,320.326 377.496,325.993 373.5,331.5C 372.863,335.571 372.029,339.571 371,343.5C 360.5,352.667 350.667,362.5 341.5,373C 317.323,391.168 294.323,410.835 272.5,432C 268.989,434.505 265.156,436.339 261,437.5C 259.112,437.204 257.278,436.704 255.5,436C 211.212,412.189 169.212,384.855 129.5,354C 113.337,343.085 97.0041,332.418 80.5,322C 75,317.167 69.5,312.333 64,307.5C 62.9702,302.72 63.9702,298.387 67,294.5C 75.5783,285.917 84.7449,278.084 94.5,271C 124.886,254.433 154.886,237.266 184.5,219.5C 193.163,179.33 202.329,139.33 212,99.5C 215.804,89.0881 219.804,78.7548 224,68.5C 225.767,65.228 228.267,62.8947 231.5,61.5 Z"/></g>
<g><path style="opacity:1" fill="#2c3036" d="M 228.5,71.5 C 235.944,71.361 243.277,72.1944 250.5,74C 310.069,99.9501 367.736,129.283 423.5,162C 427.284,166.861 428.451,172.361 427,178.5C 424.571,183.201 422.905,188.201 422,193.5C 414.024,213.421 406.358,233.421 399,253.5C 393.919,268.075 389.252,282.742 385,297.5C 381.139,306.724 376.639,315.557 371.5,324C 327.973,298.893 283.973,274.226 239.5,250C 224.577,239.036 208.577,229.869 191.5,222.5C 190.339,218.205 190.172,213.871 191,209.5C 199.838,180.642 206.838,151.309 212,121.5C 215.661,109.17 219.327,96.8362 223,84.5C 224.848,80.1408 226.682,75.8075 228.5,71.5 Z"/></g>
<g><path style="opacity:1" fill="#f3f3f4" d="M 233.5,81.5 C 245.175,86.0051 256.841,90.5051 268.5,95C 303.027,114.43 338.694,131.43 375.5,146C 379.247,148.87 383.247,151.203 387.5,153C 390.167,155.333 392.833,157.667 395.5,160C 403.564,163.449 411.397,167.282 419,171.5C 418.995,176.874 418.328,182.208 417,187.5C 402.187,227.955 386.687,268.122 370.5,308C 368.833,308.667 367.167,308.667 365.5,308C 355.169,302.503 345.169,296.503 335.5,290C 319.413,281.996 303.413,273.996 287.5,266C 257.444,246.885 227.61,227.385 198,207.5C 197.333,204.833 197.333,202.167 198,199.5C 206.862,161.589 216.529,123.922 227,86.5C 228.965,84.4497 231.132,82.783 233.5,81.5 Z"/></g>
<g><path style="opacity:1" fill="#292c33" d="M 235.5,85.5 C 278.312,110.738 322.979,132.571 369.5,151C 383.429,158.882 397.596,166.382 412,173.5C 412.601,175.137 413.101,176.803 413.5,178.5C 412.232,182.47 411.065,186.47 410,190.5C 396.461,227.606 382.294,264.606 367.5,301.5C 334.574,283.367 301.574,265.2 268.5,247C 246.588,232.459 224.421,218.292 202,204.5C 210.992,166.198 220.492,127.864 230.5,89.5C 232.419,88.3875 234.086,87.0542 235.5,85.5 Z"/></g>
<g><path style="opacity:1" fill="#ededee" d="M 280.5,125.5 C 282.199,125.34 283.866,125.506 285.5,126C 286.833,126.667 286.833,127.333 285.5,128C 280.909,129.864 276.243,131.53 271.5,133C 258.577,135.785 245.91,139.451 233.5,144C 229.505,145.361 225.505,145.527 221.5,144.5C 222.779,142.854 224.445,141.687 226.5,141C 244.522,135.487 262.522,130.321 280.5,125.5 Z"/></g>
<g><path style="opacity:1" fill="#f1f1f2" d="M 296.5,138.5 C 298.199,138.34 299.866,138.506 301.5,139C 298.392,141.37 295.059,143.37 291.5,145C 275.057,149.063 258.724,153.396 242.5,158C 238.534,158.828 234.534,159.328 230.5,159.5C 230.33,158.178 230.663,157.011 231.5,156C 252.896,148.736 274.562,142.903 296.5,138.5 Z"/></g>
<g><path style="opacity:1" fill="#f1f2f2" d="M 385.5,184.5 C 387.527,184.338 389.527,184.505 391.5,185C 388.36,186.716 385.027,188.049 381.5,189C 336.036,197.141 291.036,207.307 246.5,219.5C 246.238,218.022 246.571,216.689 247.5,215.5C 257.222,211.397 267.222,207.897 277.5,205C 294.869,200.984 312.202,196.984 329.5,193C 348.307,190.117 366.974,187.284 385.5,184.5 Z"/></g>
<g><path style="opacity:1" fill="#f1f1f1" d="M 344.5,222.5 C 347.85,222.335 351.183,222.502 354.5,223C 353.833,223.667 353.167,224.333 352.5,225C 343.865,227.46 335.198,229.794 326.5,232C 319.867,233.22 313.2,233.553 306.5,233C 305.167,232 305.167,231 306.5,230C 317.935,226.778 329.602,224.778 341.5,224C 342.737,223.768 343.737,223.268 344.5,222.5 Z"/></g>
<g><path style="opacity:1" fill="#2a2e35" d="M 224.5,410.5 C 224.5,409.833 224.5,409.167 224.5,408.5C 234.93,414.413 245.263,420.58 255.5,427C 258.303,427.755 260.97,427.422 263.5,426C 259.326,424.918 255.326,423.251 251.5,421C 236.146,411.635 220.813,402.302 205.5,393C 161.385,362.102 116.719,331.936 71.5,302.5C 70.8933,302.624 70.56,302.957 70.5,303.5C 69.8333,303.5 69.5,303.167 69.5,302.5C 70.2026,300.284 71.5359,298.451 73.5,297C 79.5816,291.647 85.5816,286.314 91.5,281C 100.802,276.015 110.135,271.015 119.5,266C 138.602,254.61 157.602,242.943 176.5,231C 181.414,229.954 186.247,228.787 191,227.5C 201.292,232.23 211.459,237.397 221.5,243C 256.338,264.925 292.004,285.591 328.5,305C 341.252,312.458 353.752,320.291 366,328.5C 366.692,333.891 366.359,339.225 365,344.5C 342.565,365.142 319.399,384.975 295.5,404C 286.69,412.566 277.69,420.899 268.5,429C 265.068,431.072 261.402,431.738 257.5,431C 245.732,425.131 234.732,418.297 224.5,410.5 Z"/></g>
<g><path style="opacity:1" fill="#f4f4f4" d="M 189.5,238.5 C 191.199,238.34 192.866,238.506 194.5,239C 200.275,242.439 206.275,245.439 212.5,248C 234.17,261.504 256.17,274.504 278.5,287C 285.672,291.419 292.672,296.085 299.5,301C 308.277,304.782 316.277,309.782 323.5,316C 330.76,318.601 336.927,322.768 342,328.5C 342.667,329.5 342.667,330.5 342,331.5C 330.833,341.333 319.667,351.167 308.5,361C 305.328,362.752 302.328,364.752 299.5,367C 297.833,367.667 296.167,367.667 294.5,367C 286.853,362.699 279.187,358.366 271.5,354C 231.878,326.382 191.711,299.549 151,273.5C 150.104,270.975 150.604,268.808 152.5,267C 164.902,257.48 177.235,247.98 189.5,238.5 Z"/></g>
<g><path style="opacity:1" fill="#393c43" d="M 186.5,246.5 C 187.995,246.415 188.995,247.081 189.5,248.5C 188.5,250.167 187.167,251.5 185.5,252.5C 184.5,252.167 183.833,251.5 183.5,250.5C 184.524,249.148 185.524,247.815 186.5,246.5 Z"/></g>
<g><path style="opacity:1" fill="#3a3d44" d="M 208.5,254.5 C 202.079,252.123 196.079,248.956 190.5,245C 191,244.5 191.5,244 192,243.5C 197.651,247.066 203.151,250.733 208.5,254.5 Z"/></g>
<g><path style="opacity:1" fill="#373b41" d="M 192.5,251.5 C 193.995,251.415 194.995,252.081 195.5,253.5C 194.297,257.951 192.297,258.451 189.5,255C 190.71,253.961 191.71,252.794 192.5,251.5 Z"/></g>
<g><path style="opacity:1" fill="#383c42" d="M 179.5,252.5 C 185.656,253.584 186.656,256.251 182.5,260.5C 179.991,259.079 177.657,257.412 175.5,255.5C 176.624,254.141 177.958,253.141 179.5,252.5 Z"/></g>
<g><path style="opacity:1" fill="#363a40" d="M 200.5,256.5 C 203.402,256.823 205.235,258.156 206,260.5C 203.21,262.831 200.376,262.664 197.5,260C 198.71,258.961 199.71,257.794 200.5,256.5 Z"/></g>
<g><path style="opacity:1" fill="#34383e" d="M 172.5,257.5 C 175.96,260.402 179.627,263.069 183.5,265.5C 183.081,266.672 182.415,267.672 181.5,268.5C 177.461,265.481 173.128,262.981 168.5,261C 170.324,260.34 171.657,259.173 172.5,257.5 Z"/></g>
<g><path style="opacity:1" fill="#34383e" d="M 190.5,259.5 C 196.806,260.475 197.639,262.809 193,266.5C 190.92,264.877 188.754,263.377 186.5,262C 187.858,261.066 189.192,260.232 190.5,259.5 Z"/></g>
<g><path style="opacity:1" fill="#2f3239" d="M 209.5,260.5 C 212.283,262.067 214.949,263.9 217.5,266C 215.596,268.906 213.263,269.239 210.5,267C 209.5,266.167 208.5,265.333 207.5,264.5C 208.63,263.378 209.297,262.044 209.5,260.5 Z"/></g>
<g><path style="opacity:1" fill="#35383f" d="M 164.5,263.5 C 168.406,264.228 171.74,266.062 174.5,269C 172.91,270.046 171.41,271.213 170,272.5C 166.911,271.04 164.078,269.207 161.5,267C 162.71,265.961 163.71,264.794 164.5,263.5 Z"/></g>
<g><path style="opacity:1" fill="#3b3f45" d="M 198.5,264.5 C 200.466,265.441 202.466,266.441 204.5,267.5C 205.661,269.378 204.994,270.378 202.5,270.5C 200.226,270.03 198.226,269.03 196.5,267.5C 197.193,266.482 197.859,265.482 198.5,264.5 Z"/></g>
<g><path style="opacity:1" fill="#32363c" d="M 219.5,267.5 C 221.713,267.848 223.713,268.681 225.5,270C 222.926,273.16 220.259,273.16 217.5,270C 218.381,269.292 219.047,268.458 219.5,267.5 Z"/></g>
<g><path style="opacity:1" fill="#3d4047" d="M 187.5,267.5 C 189.928,268.212 192.261,269.212 194.5,270.5C 195.7,272.107 195.2,273.107 193,273.5C 190.156,273.174 187.989,271.84 186.5,269.5C 186.863,268.817 187.196,268.15 187.5,267.5 Z"/></g>
<g><path style="opacity:0" fill="#282c33" d="M 499.5,263.5 C 499.5,342.167 499.5,420.833 499.5,499.5C 421.833,499.5 344.167,499.5 266.5,499.5C 298.12,496.725 328.454,488.558 357.5,475C 442.837,430.197 490.17,359.697 499.5,263.5 Z"/></g>
<g><path style="opacity:1" fill="#373b41" d="M 158.5,269.5 C 163.913,270.307 165.079,272.64 162,276.5C 159.856,275.354 158.023,273.854 156.5,272C 157.056,270.989 157.722,270.156 158.5,269.5 Z"/></g>
<g><path style="opacity:0" fill="#282c33" d="M -0.5,266.5 C 3.27975,309.671 16.7798,349.671 40,386.5C 86.3242,453.588 150.157,491.254 231.5,499.5C 154.167,499.5 76.8333,499.5 -0.5,499.5C -0.5,421.833 -0.5,344.167 -0.5,266.5 Z"/></g>
<g><path style="opacity:1" fill="#31353c" d="M 208.5,271.5 C 211.226,271.264 213.559,272.097 215.5,274C 214.667,274.833 213.833,275.667 213,276.5C 211.22,275.406 209.386,274.406 207.5,273.5C 207.863,272.817 208.196,272.15 208.5,271.5 Z"/></g>
<g><path style="opacity:1" fill="#32363c" d="M 177.5,271.5 C 180.524,271.364 182.024,272.698 182,275.5C 179.758,276.175 177.591,275.675 175.5,274C 176.381,273.292 177.047,272.458 177.5,271.5 Z"/></g>
<g><path style="opacity:1" fill="#373a41" d="M 228.5,271.5 C 233.67,272.883 233.837,274.883 229,277.5C 227.745,276.789 226.579,275.956 225.5,275C 227.426,274.578 228.426,273.411 228.5,271.5 Z"/></g>
<g><path style="opacity:1" fill="#40444a" d="M 198.5,273.5 C 200.609,274.391 202.609,275.558 204.5,277C 202.586,278.827 200.586,278.827 198.5,277C 197.316,275.855 197.316,274.688 198.5,273.5 Z"/></g>
<g><path style="opacity:1" fill="#32363d" d="M 167.5,275.5 C 169.593,276.045 171.593,276.878 173.5,278C 170.833,281.333 168.167,281.333 165.5,278C 166.381,277.292 167.047,276.458 167.5,275.5 Z"/></g>
<g><path style="opacity:1" fill="#34383f" d="M 185.5,276.5 C 188.691,277.092 191.691,278.259 194.5,280C 193.646,281.022 192.646,281.855 191.5,282.5C 189.5,281.5 187.5,280.5 185.5,279.5C 184.438,278.575 184.438,277.575 185.5,276.5 Z"/></g>
<g><path style="opacity:1" fill="#393d43" d="M 217.5,276.5 C 221.814,276.387 222.981,278.053 221,281.5C 218.444,280.781 217.277,279.114 217.5,276.5 Z"/></g>
<g><path style="opacity:1" fill="#33373e" d="M 236.5,276.5 C 239.839,277.04 242.006,278.707 243,281.5C 240.032,283.928 237.198,283.595 234.5,280.5C 234.167,280.167 233.833,279.833 233.5,279.5C 234.77,278.712 235.77,277.712 236.5,276.5 Z"/></g>
<g><path style="opacity:1" fill="#3e4248" d="M 208.5,254.5 C 250.702,277.606 292.369,301.773 333.5,327C 335.007,327.837 335.507,329.004 335,330.5C 312.902,316.196 290.068,303.03 266.5,291C 252.296,280.729 237.296,271.729 221.5,264C 216.985,260.97 212.651,257.803 208.5,254.5 Z"/></g>
<g><path style="opacity:1" fill="#3c3f46" d="M 207.5,278.5 C 213.545,279.25 214.379,281.25 210,284.5C 208.167,283.333 206.333,282.167 204.5,281C 205.571,280.148 206.571,279.315 207.5,278.5 Z"/></g>
<g><path style="opacity:1" fill="#34383e" d="M 176.5,280.5 C 180.538,281.02 183.872,282.853 186.5,286C 184.945,287.289 183.279,287.956 181.5,288C 178.833,286.333 176.167,284.667 173.5,283C 174.571,282.148 175.571,281.315 176.5,280.5 Z"/></g>
<g><path style="opacity:1" fill="#383c43" d="M 225.5,280.5 C 228.116,281.48 230.449,282.98 232.5,285C 231.534,286.678 230.201,287.345 228.5,287C 227.315,285.647 225.981,284.48 224.5,283.5C 225.127,282.583 225.461,281.583 225.5,280.5 Z"/></g>
<g><path style="opacity:1" fill="#30343b" d="M 196.5,282.5 C 202.856,283.073 203.523,284.74 198.5,287.5C 194.565,286.663 193.899,284.997 196.5,282.5 Z"/></g>
<g><path style="opacity:1" fill="#373a41" d="M 246.5,282.5 C 252.947,285.016 252.947,286.849 246.5,288C 245.5,287.167 244.5,286.333 243.5,285.5C 244.77,284.712 245.77,283.712 246.5,282.5 Z"/></g>
<g><path style="opacity:1" fill="#393d43" d="M 215.5,284.5 C 217.783,284.608 219.783,285.441 221.5,287C 218.685,290.238 216.018,290.071 213.5,286.5C 214.243,285.818 214.909,285.151 215.5,284.5 Z"/></g>
<g><path style="opacity:1" fill="#35393f" d="M 206.5,287.5 C 208.423,287.795 210.09,288.628 211.5,290C 209.089,292.698 206.423,293.032 203.5,291C 204.71,289.961 205.71,288.794 206.5,287.5 Z"/></g>
<g><path style="opacity:1" fill="#3c4046" d="M 236.5,286.5 C 238.305,287.237 239.971,288.237 241.5,289.5C 239.616,293.017 237.283,293.351 234.5,290.5C 235.18,289.14 235.847,287.807 236.5,286.5 Z"/></g>
<g><path style="opacity:1" fill="#32353c" d="M 189.5,288.5 C 195.929,289.473 196.596,291.473 191.5,294.5C 187.855,293.009 187.188,291.009 189.5,288.5 Z"/></g>
<g><path style="opacity:1" fill="#32363d" d="M 253.5,288.5 C 256.516,288.841 259.182,290.007 261.5,292C 258.073,295.008 254.74,294.675 251.5,291C 252.381,290.292 253.047,289.458 253.5,288.5 Z"/></g>
<g><path style="opacity:1" fill="#383c43" d="M 224.5,289.5 C 226.386,290.361 228.22,291.361 230,292.5C 230.345,294.201 229.678,295.534 228,296.5C 225.833,295 223.667,293.5 221.5,292C 222.571,291.148 223.571,290.315 224.5,289.5 Z"/></g>
<g><path style="opacity:1" fill="#32363d" d="M 212.5,292.5 C 223.089,294.396 223.089,295.896 212.5,297C 211.272,295.51 211.272,294.01 212.5,292.5 Z"/></g>
<g><path style="opacity:1" fill="#33373d" d="M 244.5,291.5 C 246.853,292.34 248.853,293.674 250.5,295.5C 249.974,297.23 248.974,298.564 247.5,299.5C 245.321,298.243 243.321,296.743 241.5,295C 242.71,293.961 243.71,292.794 244.5,291.5 Z"/></g>
<g><path style="opacity:1" fill="#30343b" d="M 199.5,294.5 C 200.552,294.351 201.552,294.517 202.5,295C 214.5,303 226.5,311 238.5,319C 237.226,320.221 235.726,321.054 234,321.5C 228.025,318.39 222.525,314.557 217.5,310C 210.108,306.43 203.108,302.264 196.5,297.5C 197.77,296.712 198.77,295.712 199.5,294.5 Z"/></g>
<g><path style="opacity:1" fill="#373b41" d="M 265.5,294.5 C 267.636,295.403 269.636,296.569 271.5,298C 268.849,301.206 266.515,300.873 264.5,297C 264.743,296.098 265.077,295.265 265.5,294.5 Z"/></g>
<g><path style="opacity:1" fill="#3f4248" d="M 234.5,296.5 C 237.028,297.518 236.861,298.518 234,299.5C 233.5,299.167 233,298.833 232.5,298.5C 233.243,297.818 233.909,297.151 234.5,296.5 Z"/></g>
<g><path style="opacity:1" fill="#32353c" d="M 223.5,297.5 C 227.399,299.134 227.232,300.8 223,302.5C 221.605,302.22 220.438,301.553 219.5,300.5C 220.901,299.479 222.235,298.479 223.5,297.5 Z"/></g>
<g><path style="opacity:1" fill="#34383f" d="M 254.5,298.5 C 260.848,299.28 261.681,301.613 257,305.5C 252.486,304.202 251.653,301.869 254.5,298.5 Z"/></g>
<g><path style="opacity:1" fill="#f0f0f1" d="M 169.5,299.5 C 174.618,298.889 179.285,300.056 183.5,303C 201.085,314.925 218.918,326.425 237,337.5C 237.667,338.5 237.667,339.5 237,340.5C 224.863,353.638 212.363,366.471 199.5,379C 175.598,366.042 152.598,351.542 130.5,335.5C 130.343,334.127 130.51,332.793 131,331.5C 133.833,328.667 136.667,325.833 139.5,323C 149.973,315.684 159.973,307.851 169.5,299.5 Z"/></g>
<g><path style="opacity:1" fill="#33363d" d="M 240.5,300.5 C 244.09,301.496 246.59,303.496 248,306.5C 247.586,306.957 247.086,307.291 246.5,307.5C 243.671,306.253 241.005,304.753 238.5,303C 239.381,302.292 240.047,301.458 240.5,300.5 Z"/></g>
<g><path style="opacity:1" fill="#33363d" d="M 274.5,299.5 C 277.14,300.82 279.807,302.153 282.5,303.5C 283.047,305.712 282.047,307.379 279.5,308.5C 276.676,307.163 274.342,305.33 272.5,303C 272.978,301.697 273.645,300.531 274.5,299.5 Z"/></g>
<g><path style="opacity:1" fill="#35383f" d="M 231.5,302.5 C 233.358,303.595 235.025,304.929 236.5,306.5C 235.573,308.946 233.906,309.779 231.5,309C 229.939,308.059 228.605,306.892 227.5,305.5C 228.901,304.479 230.235,303.479 231.5,302.5 Z"/></g>
<g><path style="opacity:1" fill="#292d34" d="M 170.5,304.5 C 174.623,304.798 178.623,305.631 182.5,307C 198.215,319.189 214.882,329.855 232.5,339C 221.281,351.218 209.781,363.051 198,374.5C 177.048,360.946 156.214,347.279 135.5,333.5C 139.352,328.815 143.685,324.648 148.5,321C 156.017,315.637 163.35,310.137 170.5,304.5 Z"/></g>
<g><path style="opacity:1" fill="#363a40" d="M 263.5,303.5 C 266.267,304.051 268.6,305.384 270.5,307.5C 267.911,312.137 264.911,312.137 261.5,307.5C 262.63,306.378 263.297,305.044 263.5,303.5 Z"/></g>
<g><path style="opacity:1" fill="#32363d" d="M 287.5,306.5 C 290.274,307.723 292.941,309.223 295.5,311C 291.672,315.633 288.005,315.466 284.5,310.5C 285.91,309.431 286.91,308.097 287.5,306.5 Z"/></g>
<g><path style="opacity:1" fill="#3f4249" d="M 251.5,308.5 C 256.352,308.129 257.185,309.462 254,312.5C 251.423,311.835 250.59,310.501 251.5,308.5 Z"/></g>
<g><path style="opacity:1" fill="#363a40" d="M 239.5,309.5 C 242.358,309.595 244.691,310.762 246.5,313C 243.191,316.432 240.191,316.098 237.5,312C 238.381,311.292 239.047,310.458 239.5,309.5 Z"/></g>
<g><path style="opacity:1" fill="#32363d" d="M 274.5,310.5 C 277.486,310.992 279.819,312.492 281.5,315C 281.07,316.434 280.236,317.601 279,318.5C 276.417,317.126 273.917,315.626 271.5,314C 272.71,312.961 273.71,311.794 274.5,310.5 Z"/></g>
<g><path style="opacity:1" fill="#34383e" d="M 258.5,313.5 C 262.733,314.106 266.733,315.606 270.5,318C 268.442,320.764 266.109,321.097 263.5,319C 261.576,317.25 259.909,315.417 258.5,313.5 Z"/></g>
<g><path style="opacity:1" fill="#2f333a" d="M 298.5,313.5 C 301.929,314.381 304.929,316.048 307.5,318.5C 306.988,321.532 305.322,322.699 302.5,322C 300.167,320.5 297.833,319 295.5,317.5C 296.524,316.148 297.524,314.815 298.5,313.5 Z"/></g>
<g><path style="opacity:1" fill="#35393f" d="M 248.5,315.5 C 249.873,315.343 251.207,315.51 252.5,316C 253.551,317.385 254.884,318.385 256.5,319C 253.375,321.999 250.208,321.832 247,318.5C 246.761,317.212 247.261,316.212 248.5,315.5 Z"/></g>
<g><path style="opacity:1" fill="#2f333a" d="M 284.5,317.5 C 287.016,317.755 289.35,318.589 291.5,320C 292.03,324.106 290.363,325.106 286.5,323C 283.767,321.772 283.1,319.939 284.5,317.5 Z"/></g>
<g><path style="opacity:1" fill="#34383f" d="M 257.5,321.5 C 260.745,321.88 263.745,323.047 266.5,325C 265.333,326.167 264.167,327.333 263,328.5C 261.172,326.919 259.172,325.585 257,324.5C 256.53,323.423 256.697,322.423 257.5,321.5 Z"/></g>
<g><path style="opacity:1" fill="#34383f" d="M 273.5,320.5 C 275.466,321.441 277.466,322.441 279.5,323.5C 280.73,327.083 279.396,328.249 275.5,327C 274.315,325.647 272.981,324.48 271.5,323.5C 272.193,322.482 272.859,321.482 273.5,320.5 Z"/></g>
<g><path style="opacity:1" fill="#33373d" d="M 312.5,322.5 C 313.552,322.351 314.552,322.517 315.5,323C 320.486,327.161 325.819,330.827 331.5,334C 330.328,336.055 328.661,336.722 326.5,336C 320.663,332.582 314.996,328.916 309.5,325C 310.571,324.148 311.571,323.315 312.5,322.5 Z"/></g>
<g><path style="opacity:1" fill="#33373d" d="M 243.5,323.5 C 250.086,323.657 251.419,325.991 247.5,330.5C 245.076,329.577 243.076,328.077 241.5,326C 242.381,325.292 243.047,324.458 243.5,323.5 Z"/></g>
<g><path style="opacity:1" fill="#353940" d="M 296.5,323.5 C 300.423,324.795 304.09,326.628 307.5,329C 306.333,330.167 305.167,331.333 304,332.5C 301.079,330.288 297.912,328.455 294.5,327C 295.823,326.184 296.489,325.017 296.5,323.5 Z"/></g>
<g><path style="opacity:1" fill="#33373e" d="M 284.5,326.5 C 287.589,327.739 290.589,329.239 293.5,331C 292.833,332.333 292.167,333.667 291.5,335C 288.034,333.934 284.701,332.267 281.5,330C 282.71,328.961 283.71,327.794 284.5,326.5 Z"/></g>
<g><path style="opacity:1" fill="#3a3e44" d="M 268.5,328.5 C 270.963,328.781 273.13,329.781 275,331.5C 275.388,333.076 274.888,334.409 273.5,335.5C 271.5,333.833 269.5,332.167 267.5,330.5C 267.863,329.817 268.196,329.15 268.5,328.5 Z"/></g>
<g><path style="opacity:1" fill="#31343b" d="M 254.5,329.5 C 257.223,330.352 259.89,331.519 262.5,333C 258.812,337.75 255.479,337.583 252.5,332.5C 253.193,331.482 253.859,330.482 254.5,329.5 Z"/></g>
<g><path style="opacity:1" fill="#2d3138" d="M 309.5,330.5 C 314.66,333.245 319.994,335.745 325.5,338C 321.285,341.722 316.952,345.222 312.5,348.5C 310.203,347.351 307.87,346.185 305.5,345C 308.907,343.261 311.24,340.594 312.5,337C 311.43,335.291 310.097,333.791 308.5,332.5C 308.863,331.817 309.196,331.15 309.5,330.5 Z"/></g>
<g><path style="opacity:1" fill="#32363c" d="M 296.5,333.5 C 299.425,333.46 302.091,334.293 304.5,336C 307.064,338.276 306.73,340.276 303.5,342C 299.757,341.462 296.424,339.796 293.5,337C 294.71,335.961 295.71,334.794 296.5,333.5 Z"/></g>
<g><path style="opacity:1" fill="#35383f" d="M 265.5,335.5 C 274.61,337.473 275.277,340.473 267.5,344.5C 265.321,343.243 263.321,341.743 261.5,340C 263.041,338.629 264.375,337.129 265.5,335.5 Z"/></g>
<g><path style="opacity:1" fill="#31353b" d="M 281.5,335.5 C 290.444,340.978 299.444,346.478 308.5,352C 305.642,356.29 302.309,356.623 298.5,353C 292.116,347.615 285.45,342.615 278.5,338C 279.571,337.148 280.571,336.315 281.5,335.5 Z"/></g>
<g><path style="opacity:1" fill="#383c43" d="M 276.5,342.5 C 279.947,344.397 283.28,346.563 286.5,349C 285.725,350.23 284.725,350.563 283.5,350C 280.883,347.558 278.55,345.058 276.5,342.5 Z"/></g>
<g><path style="opacity:1" fill="#373b42" d="M 272.5,346.5 C 274.595,347.412 276.595,348.579 278.5,350C 280.329,351.113 281.163,352.613 281,354.5C 277.115,352.832 274.282,350.166 272.5,346.5 Z"/></g>
<g><path style="opacity:1" fill="#363a41" d="M 69.5,302.5 C 69.5,303.167 69.8333,303.5 70.5,303.5C 88.417,316.804 106.75,329.637 125.5,342C 144.704,353.433 163.037,366.1 180.5,380C 195.342,389.363 210.008,398.863 224.5,408.5C 224.5,409.167 224.5,409.833 224.5,410.5C 190.718,390.099 158.051,367.932 126.5,344C 108.099,331.938 89.4326,320.271 70.5,309C 68.3918,306.984 68.0584,304.817 69.5,302.5 Z"/></g>
<g><path style="opacity:1" fill="#2f333a" d="M 288.5,352.5 C 292.263,353.252 295.596,354.919 298.5,357.5C 299.047,359.712 298.047,361.379 295.5,362.5C 291.905,360.898 288.571,358.898 285.5,356.5C 286.524,355.148 287.524,353.815 288.5,352.5 Z"/></g>
<g><path style="opacity:1" fill="#e9e9ea" d="M 224.5,408.5 C 210.008,398.863 195.342,389.363 180.5,380C 163.037,366.1 144.704,353.433 125.5,342C 106.75,329.637 88.417,316.804 70.5,303.5C 70.56,302.957 70.8933,302.624 71.5,302.5C 116.719,331.936 161.385,362.102 205.5,393C 220.813,402.302 236.146,411.635 251.5,421C 255.326,423.251 259.326,424.918 263.5,426C 260.97,427.422 258.303,427.755 255.5,427C 245.263,420.58 234.93,414.413 224.5,408.5 Z"/></g>
<g><path style="opacity:1" fill="#eeeeef" d="M 362.5,335.5 C 364.225,335.843 364.725,336.843 364,338.5C 335.567,367.618 305.4,394.451 273.5,419C 271.523,420.541 269.523,421.041 267.5,420.5C 278.778,411.356 289.445,401.522 299.5,391C 323.281,375.758 344.281,357.258 362.5,335.5 Z"/></g>
</svg>
