<?xml version="1.0" encoding="UTF-8"?>
<!DOCTYPE svg PUBLIC "-//W3C//DTD SVG 1.1//EN" "http://www.w3.org/Graphics/SVG/1.1/DTD/svg11.dtd">
<svg xmlns="http://www.w3.org/2000/svg" version="1.1" width="500px" height="500px" style="shape-rendering:geometricPrecision; text-rendering:geometricPrecision; image-rendering:optimizeQuality; fill-rule:evenodd; clip-rule:evenodd" xmlns:xlink="http://www.w3.org/1999/xlink">
<g><path style="opacity:0" fill="#fefefe" d="M -0.5,-0.5 C 166.167,-0.5 332.833,-0.5 499.5,-0.5C 499.5,166.167 499.5,332.833 499.5,499.5C 332.833,499.5 166.167,499.5 -0.5,499.5C -0.5,332.833 -0.5,166.167 -0.5,-0.5 Z"/></g>
<g><path style="opacity:1" fill="#c778dd" d="M 378.5,95.5 C 388.227,94.8611 397.56,95.5278 406.5,97.5C 368.165,200.172 329.832,302.838 291.5,405.5C 271.5,405.5 251.5,405.5 231.5,405.5C 231.823,399.31 231.49,393.31 230.5,387.5C 228.991,304.496 227.324,221.496 225.5,138.5C 225.829,132.463 225.496,126.463 224.5,120.5C 223.893,120.624 223.56,120.957 223.5,121.5C 183.202,138.002 162.869,168.169 162.5,212C 161.537,222.011 163.203,231.511 167.5,240.5C 165.735,241.461 163.735,241.795 161.5,241.5C 147.154,241.745 135.987,236.078 128,224.5C 120.809,204.434 122.475,185.1 133,166.5C 150.35,140.154 173.517,120.654 202.5,108C 229.59,95.8183 257.923,90.985 287.5,93.5C 288.418,178.835 289.584,264.168 291,349.5C 320.1,264.698 349.266,180.031 378.5,95.5 Z"/></g>
<g><path style="opacity:1" fill="#d59ae5" d="M 378.5,95.5 C 387.986,94.5062 397.652,94.1729 407.5,94.5C 407.737,95.791 407.404,96.791 406.5,97.5C 397.56,95.5278 388.227,94.8611 378.5,95.5 Z"/></g>
<g><path style="opacity:1" fill="#ddaeea" d="M 223.5,121.5 C 223.56,120.957 223.893,120.624 224.5,120.5C 225.496,126.463 225.829,132.463 225.5,138.5C 224.833,132.833 224.167,127.167 223.5,121.5 Z"/></g>
<g><path style="opacity:1" fill="#eacef2" d="M 167.5,240.5 C 168.043,240.56 168.376,240.893 168.5,241.5C 166.027,242.797 163.693,242.797 161.5,241.5C 163.735,241.795 165.735,241.461 167.5,240.5 Z"/></g>
<g><path style="opacity:1" fill="#d8a0e6" d="M 230.5,387.5 C 231.49,393.31 231.823,399.31 231.5,405.5C 251.5,405.5 271.5,405.5 291.5,405.5C 271.34,406.497 251.007,406.83 230.5,406.5C 230.5,400.167 230.5,393.833 230.5,387.5 Z"/></g>
</svg>
